<?xml version="1.0" encoding="UTF-8" standalone="no"?>
<svg
   version="1.1"
   id="Layer_1"
   x="0px"
   y="0px"
   width="1000"
   viewBox="0 0 1000 1000"
   enable-background="new 0 0 1536 1024"
   xml:space="preserve"
   sodipodi:docname="paint_palette_svg_06_labels.svg"
   inkscape:version="1.4.2 (f4327f4, 2025-05-13)"
   height="1000"
   xmlns:inkscape="http://www.inkscape.org/namespaces/inkscape"
   xmlns:sodipodi="http://sodipodi.sourceforge.net/DTD/sodipodi-0.dtd"
   xmlns="http://www.w3.org/2000/svg"
   xmlns:svg="http://www.w3.org/2000/svg"><defs
   id="defs2980" /><sodipodi:namedview
   id="namedview2980"
   pagecolor="#ffffff"
   bordercolor="#000000"
   borderopacity="0.25"
   inkscape:showpageshadow="false"
   inkscape:pageopacity="0.0"
   inkscape:pagecheckerboard="0"
   inkscape:deskcolor="#d1d1d1"
   showgrid="false"
   inkscape:zoom="0.26654611"
   inkscape:cx="380.79715"
   inkscape:cy="664.05021"
   inkscape:window-width="1254"
   inkscape:window-height="1020"
   inkscape:window-x="-9"
   inkscape:window-y="2"
   inkscape:window-maximized="0"
   inkscape:current-layer="layer2"
   borderlayer="false"
   showborder="false" />




































































































































































































































































































































































































































































































































































































































































































































































































































































































































































































































































































































































































































































































































































































































































































































































































































































































































































































































































































































































































































































































































































































































































































































































































































































































































































































































































































































































































































































































































































































































































































<g
   inkscape:groupmode="layer"
   id="layer2"
   inkscape:label="paint_palette_base"
   style="display:inline"><path
     id="path3"
     style="display:inline;fill:#e2bf61;fill-opacity:1;stroke:#000000;stroke-width:2.50775;stroke-dasharray:none"
     inkscape:label="palette_path_btm_layer"
     d="M 500.47174,72.654121 C 372.59721,73.558781 249.96038,119.89028 159.53943,201.45589 69.118494,283.02149 18.320441,393.14076 18.320441,507.5873 c 0,114.44653 50.798062,223.84608 141.218989,304.13231 90.42095,80.28623 213.05778,124.88285 340.93231,123.97819 57.30499,-0.4054 116.79824,-2.25107 166.331,-27.66802 117.25754,-60.16881 60.23669,-131.0393 110.13691,-176.05254 51.55543,-46.50634 140.75467,-27.37743 178.41452,-87.95824 25.89367,-41.65344 27.26895,-94.06193 27.26895,-143.25438 0,-114.44653 -50.7981,-223.84606 -141.21914,-304.1323 C 750.9831,116.34607 628.34625,71.749461 500.47174,72.654121 Z M 633.28983,589.17276 a 65.578796,85.176215 57.695372 0 1 55.76778,38.44896 65.578796,85.176215 57.695372 0 1 -58.07527,96.78364 65.578796,85.176215 57.695372 0 1 -97.20994,-30.3619 65.578796,85.176215 57.695372 0 1 58.07345,-96.78363 65.578796,85.176215 57.695372 0 1 41.44398,-8.08707 z" /><path
     id="path4"
     style="display:inline;fill:#e7cb7f;fill-opacity:1;stroke:#000000;stroke-width:1.7963;stroke-dasharray:none"
     inkscape:label="palette_top"
     d="M 493.5026,56.973571 C 365.62808,57.878221 242.99125,104.20973 152.5703,185.77534 62.149362,267.34094 11.351309,377.46021 11.351309,491.90674 c 0,114.44654 50.798062,223.84609 141.218991,304.13232 90.42095,80.28623 213.05778,124.88285 340.9323,123.97819 57.305,-0.4054 116.79825,-2.25107 166.33101,-27.66802 117.25753,-60.16881 60.23674,-131.0393 110.1369,-176.05254 51.55543,-46.50634 140.75467,-27.37743 178.41452,-87.95824 25.89367,-41.65344 27.26894,-94.06193 27.26894,-143.25438 0,-114.44653 -50.79806,-223.84606 -141.21913,-304.1323 C 744.01396,100.66553 621.37712,56.068911 493.5026,56.973571 Z M 626.3207,573.49221 a 65.578796,85.176215 57.695372 0 1 55.76778,38.44896 65.578796,85.176215 57.695372 0 1 -58.07527,96.78364 65.578796,85.176215 57.695372 0 1 -97.20994,-30.3619 65.578796,85.176215 57.695372 0 1 58.07344,-96.78363 65.578796,85.176215 57.695372 0 1 41.44399,-8.08707 z" /></g><g
   inkscape:groupmode="layer"
   id="layer5"
   inkscape:label="home"
   transform="matrix(1.0680273,0,0,1.0680273,-232.61712,-46.242623)"><path
     id="path5"
     style="fill:#1d66d4;fill-opacity:1;stroke:#000000;stroke-width:7.50053;stroke-dasharray:none"
     inkscape:label="blue_well_path"
     d="m 570.00776,698.03578 c 0,16.22399 -3.87597,31.536 -10.74597,45.04758 -7.9379,15.61189 -22.45308,30.11566 -39.12238,28.57361 -14.04272,-1.29907 -16.681,1.03826 -24.64005,14.22169 -4.99403,8.27213 -14.34847,11.10648 -23.71509,11.10648 -25.00169,0 -47.82163,-9.41015 -65.16021,-24.90644 -20.28175,-18.12672 -23.40138,-31.83118 -26.04686,-61.13553 -5.61313,-62.17754 50.05706,-92.49567 95.88468,-96.26032 54.1094,-4.445 93.54588,28.7047 93.54588,83.35293 z"
     sodipodi:nodetypes="sssssssss" /><path
     id="path6"
     style="fill:#416be3;fill-opacity:1;stroke:#000000;stroke-width:0;stroke-dasharray:none"
     inkscape:label="mid_light_blue_well_path"
     d="m 552.95743,697.43735 c 0,15.32455 -3.34166,29.78769 -9.26462,42.55021 -6.84367,14.7464 -19.35791,28.44609 -33.72932,26.98954 -12.10693,-1.22704 -14.38152,0.98069 -21.2434,13.43327 -4.3056,7.81352 -12.3705,10.49075 -20.44593,10.49075 -21.55518,0 -41.22937,-8.88847 -56.1778,-23.52566 -17.48589,-17.12181 -20.17547,-30.06652 -22.45627,-57.74628 -4.83937,-58.73052 43.15663,-87.36787 82.66687,-90.92381 46.65035,-4.19858 80.65047,27.11336 80.65047,78.73198 z"
     sodipodi:nodetypes="sssssssss" /><path
     id="path8"
     style="fill:#41b2e3;fill-opacity:1;stroke:#000000;stroke-width:0;stroke-dasharray:none"
     inkscape:label="blue_well_path"
     d="m 540.29545,694.42771 c 0.46896,16.61738 0.17953,29.04662 -8.22924,40.93139 -11.87189,16.77948 -17.19454,27.36386 -29.95987,25.96272 -10.7539,-1.18036 -12.77429,0.94338 -18.86932,12.9222 -3.82442,7.51626 -10.98803,10.09163 -18.16098,10.09163 -19.14626,0 -36.62174,-8.55031 -49.8996,-22.63063 -15.53173,-16.47041 -17.92074,-28.92264 -19.94664,-55.54932 -4.29854,-56.49612 38.33362,-84.04396 73.42835,-87.46462 41.4369,-4.03884 70.23654,26.1016 71.6373,75.73663 z"
     sodipodi:nodetypes="sssssssss" /><path
     id="path7"
     style="fill:#e4ebee;stroke:#000000;stroke-width:0"
     d="m 468.40571,645.05159 c 2.24656,7.29242 -10.53095,11.39734 -26.46007,16.41192 -15.92915,5.01454 -27.4915,8.032 -30.16637,0.87441 -2.67485,-7.15758 7.37733,-15.27476 23.23456,-20.48179 15.85721,-5.20703 30.02774,-4.52569 33.12897,2.4919"
     inkscape:label="shine_blue_well"
     sodipodi:nodetypes="csssc" /></g><g
   inkscape:groupmode="layer"
   id="layer6"
   inkscape:label="tools"
   transform="matrix(0.92879785,0,0,0.92879785,-202.38122,69.250431)"><path
     id="path5-9"
     style="display:inline;fill:#6b2977;fill-opacity:1;stroke:#000000;stroke-width:7.50053;stroke-dasharray:none"
     inkscape:label="purple_well_path"
     d="m 449.24329,387.22126 c 6.24252,12.75328 8.55658,27.55425 7.41435,43.07549 -1.31977,17.93393 -9.13683,39.68813 -25.11613,50.36556 -13.46144,8.99499 -14.99727,12.7141 -17.27097,28.75416 -1.42667,10.06458 -8.97036,18.96476 -17.61586,25.64563 -23.07686,17.83279 -47.76069,26.71232 -69.72693,26.89804 -25.69494,0.21726 -33.84748,-8.33036 -47.56475,-29.47886 -29.10511,-44.87259 10.61361,-108.41242 51.46452,-144.05887 48.23332,-42.08835 97.38871,-44.15877 118.41577,-1.20115 z"
     sodipodi:nodetypes="sssssssss" /><path
     id="path6-4"
     style="fill:#871d97;fill-opacity:1;stroke:#000000;stroke-width:0;stroke-dasharray:none"
     inkscape:label="mid_light_purple_well_path"
     d="m 433.27537,398.91222 c 5.89645,12.04625 8.37705,25.79885 7.82074,40.05578 -0.6428,16.47311 -6.92235,36.16805 -20.74777,45.27369 -11.64698,7.67088 -12.89698,11.02871 -14.43918,25.71169 -0.96771,9.21305 -7.38159,17.06995 -14.83531,22.82985 -19.89569,15.37452 -41.47523,22.42039 -60.90478,21.57659 -22.72766,-0.98699 -30.19093,-9.24412 -42.9465,-29.37569 -27.06461,-42.71486 6.21746,-99.45976 41.31766,-130.4362 41.44334,-36.57437 84.87379,-36.21186 104.73514,4.36426 z"
     sodipodi:nodetypes="sssssssss" /><path
     id="path8-8"
     style="fill:#aa33c6;fill-opacity:1;stroke:#000000;stroke-width:0;stroke-dasharray:none"
     inkscape:label="purple_well_path"
     d="m 420.43019,405.57774 c 6.82674,12.72802 11.34201,22.70478 8.15353,38.04477 -4.50164,21.65772 -5.34195,33.77428 -17.66362,41.77792 -10.38014,6.74251 -11.42784,9.853 -12.44452,23.61662 -0.63794,8.63616 -6.25911,15.77013 -12.87983,20.88633 -17.67223,13.65633 -37.09222,19.39976 -54.76555,17.80217 -20.67331,-1.86877 -27.66965,-9.95316 -39.78476,-29.43874 -25.70568,-41.34421 3.04471,-93.40684 34.1214,-121.12752 36.69272,-32.73024 74.87231,-29.57931 95.26335,8.43845 z"
     sodipodi:nodetypes="sssssssss" /><path
     id="path7-8"
     style="fill:#e4ebee;stroke:#000000;stroke-width:0"
     d="m 341.13794,397.85201 c 3.07401,2.60182 -3.36085,10.37613 -11.40781,20.01707 -8.04699,9.64092 -14.03885,16.33068 -17.32923,13.98807 -3.29037,-2.3426 0.58719,-10.87921 8.5457,-20.58316 7.9585,-9.70392 16.36355,-15.73395 19.86792,-13.65226"
     inkscape:label="shine_purple_well"
     sodipodi:nodetypes="csssc" /></g><g
   inkscape:groupmode="layer"
   id="layer8"
   inkscape:label="shop"
   transform="matrix(0.92879785,0,0,0.92879785,-204.84518,24.899133)"><path
     id="path5-9-4"
     style="display:inline;fill:#c41930;fill-opacity:1;stroke:#000000;stroke-width:7.50053;stroke-dasharray:none"
     inkscape:label="red_well_path"
     d="m 578.68004,199.05121 c 2.71726,13.9367 1.10912,28.83091 -4.02379,43.52332 -5.93078,16.97626 -5.76676,51.96103 -17.63506,66.50338 -11.4937,14.08335 -18.05034,21.44991 -24.88794,23.36442 -5.41111,1.51509 -13.54641,8.40152 -38.87128,3.22938 -28.57435,-5.83578 -56.80997,5.89256 -78.07114,0.36871 -24.87019,-6.46148 -30.5239,-16.83266 -38.27988,-40.81739 -16.45653,-50.89046 38.39724,-101.93897 87.1023,-125.75668 57.50684,-28.12198 105.51409,-17.35897 114.66679,29.58486 z"
     sodipodi:nodetypes="sssssssss" /><path
     id="path6-4-5"
     style="fill:#d00111;fill-opacity:1;stroke:#000000;stroke-width:0;stroke-dasharray:none"
     inkscape:label="mid_light_red_well_path"
     d="m 560.22433,206.19543 c 2.56662,13.16406 1.39151,27.0891 -2.84732,40.71267 -4.89774,15.74131 -26.30892,31.59517 -23.16911,48.94568 4.67488,25.83324 -6.03317,25.87195 -22.6093,19.75462 -8.6908,-3.2073 -18.19252,5.28309 -26.8861,8.91022 -23.20516,9.68167 -45.87403,10.88313 -64.4182,5.02368 -21.692,-6.85403 -26.7555,-16.76572 -33.84679,-39.5187 -15.04623,-48.27695 31.82743,-94.43472 73.76649,-115.23566 49.51809,-24.56 91.36506,-12.93388 100.01034,31.40746 z"
     sodipodi:nodetypes="ssssssssss" /><path
     id="path8-8-5"
     style="fill:#ef0815;fill-opacity:1;stroke:#000000;stroke-width:0;stroke-dasharray:none"
     inkscape:label="red_well_path"
     d="m 546.08906,209.29731 c 3.28799,14.064 5.05811,24.87094 -2.00382,38.85704 -9.97036,19.74623 -16.74703,30.42225 -20.60953,39.0752 -6.18113,13.84725 -12.2431,18.37692 -25.44479,16.25965 -9.65491,-1.54844 -10.13893,13.60424 -17.86095,16.82602 -20.61185,8.5997 -40.85706,9.10407 -57.50953,2.97266 -19.47916,-7.17219 -24.13659,-16.79583 -30.77711,-38.7587 -14.08977,-46.60047 27.19194,-89.41312 64.40016,-108.11459 43.93231,-22.08112 79.98452,-9.12551 89.80557,32.88272 z"
     sodipodi:nodetypes="sssssssss" /><path
     id="path7-8-1"
     style="fill:#e4ebee;stroke:#000000;stroke-width:0"
     d="m 470.26811,186.69139 c 3.6042,5.20369 -4.17598,18.80071 -20.32457,30.15057 -16.14863,11.34982 -33.1332,14.63621 -37.17159,9.73767 -4.03838,-4.89852 5.33094,-16.27361 21.37098,-27.75521 16.04002,-11.48154 31.25858,-17.20438 35.72824,-12.61455"
     inkscape:label="shine_red_well"
     sodipodi:nodetypes="csssc" /></g><g
   inkscape:groupmode="layer"
   id="layer9"
   inkscape:label="socials"
   transform="matrix(0.92879785,0,0,0.92879785,-204.84518,24.899133)"><path
     id="path5-9-4-1"
     style="display:inline;fill:#e16f04;fill-opacity:1;stroke:#000000;stroke-width:7.50053;stroke-dasharray:none"
     inkscape:label="red_well_path"
     d="m 892.26683,134.05623 c -1.25633,14.14343 -1.631,34.58134 -15.94185,40.69801 -24.99884,10.68488 -19.95751,48.32082 -35.39477,58.99919 -14.95,10.34134 -23.29315,15.59945 -30.39348,15.54162 -5.61903,-0.0458 -15.34563,4.31304 -38.2411,-7.6827 -25.83322,-13.53493 -56.21438,-10.10137 -75.10812,-21.30749 -22.10089,-13.1083 -24.65502,-24.64096 -25.45164,-49.83596 -1.69025,-53.45839 65.17377,-87.282769 118.57501,-96.651545 63.0517,-11.061892 106.18771,12.598687 101.95595,60.238875 z"
     sodipodi:nodetypes="sssssssss" /><path
     id="path6-4-5-1"
     style="fill:#ec690a;fill-opacity:1;stroke:#000000;stroke-width:0;stroke-dasharray:none"
     inkscape:label="mid_light_red_well_path"
     d="m 877.1816,135.7992 c -1.2445,13.35933 -6.48045,26.41158 -14.71555,38.32413 -9.51521,13.76433 -35.70141,23.05494 -37.58658,40.59539 -2.80683,26.11604 -13.60707,23.18216 -28.52844,12.70578 -7.82321,-5.49273 -19.8673,0.0279 -29.68202,1.10052 -26.19774,2.863 -49.38753,-2.27245 -66.36685,-13.04713 -19.86153,-12.60361 -22.07916,-23.53106 -22.60331,-47.35825 -1.11216,-50.55619 59.54689,-81.896024 107.85564,-90.243782 57.03888,-9.856337 95.8191,12.924223 91.62713,57.923312 z"
     sodipodi:nodetypes="ssssssssss" /><path
     id="path8-8-5-5"
     style="fill:#f47d06;fill-opacity:1;stroke:#000000;stroke-width:0;stroke-dasharray:none"
     inkscape:label="red_well_path"
     d="m 858.11258,134.85729 c -0.74333,14.4241 -2.04122,25.29786 -12.70647,36.77541 -15.05771,16.20454 -22.39915,23.90792 -25.3365,32.81745 -5.49939,16.68067 -19.18252,21.55374 -31.27841,15.85664 -8.84619,-4.16651 -16.49995,1.96677 -24.8127,2.91949 -22.18865,2.54306 -41.77891,-2.58964 -56.07632,-13.10073 -16.72434,-12.2953 -18.52872,-22.83334 -18.81466,-45.77637 -0.60673,-48.68015 50.93299,-78.357759 91.86923,-86.001105 48.33404,-9.024624 79.37605,13.425404 77.15583,56.509215 z"
     sodipodi:nodetypes="sssssssss" /><path
     id="path7-8-1-2"
     style="fill:#e4ebee;stroke:#000000;stroke-width:0"
     d="m 777.43043,98.553769 c 1.75514,5.215691 -8.02296,14.695681 -24.24861,20.280191 -16.22565,5.58445 -25.31389,3.32614 -27.50529,-1.73941 -2.19139,-5.06554 2.5267,-12.41662 18.65421,-17.120847 17.37678,-5.068621 29.35198,-8.642112 32.88431,-1.917882"
     inkscape:label="shine_orange_well"
     sodipodi:nodetypes="csssc" /></g><g
   inkscape:groupmode="layer"
   id="layer10"
   inkscape:label="about"
   transform="matrix(0.92879785,0,0,0.92879785,-204.84518,24.899133)"><path
     id="path5-9-6"
     style="display:inline;fill:#fbc329;fill-opacity:1;stroke:#000000;stroke-width:7.50053;stroke-dasharray:none"
     inkscape:label="yellow_well_path"
     d="m 1142.5109,300.05577 c -6.0767,12.83313 -16.2039,23.8723 -29.0496,32.65868 -14.8425,10.15229 -36.7232,17.60778 -55.0351,11.77497 -15.4264,-4.91371 -19.2916,-3.79506 -33.2485,4.43042 -8.7573,5.16125 -37.00133,0.84402 -47.91602,0.34649 -28.33159,-1.29146 -37.53533,-8.48456 -51.37909,-25.54037 -16.19369,-19.95098 -16.84444,-44.90658 -2.86613,-65.88346 30.0586,-45.10815 88.55414,-66.8145 141.89534,-57.11001 62.9808,11.45821 98.0674,56.09661 77.5991,99.32328 z"
     sodipodi:nodetypes="sssssssss" /><path
     id="path6-4-1"
     style="fill:#f5ce27;fill-opacity:1;stroke:#000000;stroke-width:0;stroke-dasharray:none"
     inkscape:label="mid_light_yellow_well_path"
     d="m 1123.4139,294.86392 c -5.7398,12.12166 -14.9437,22.6372 -26.4356,31.09322 -13.2784,9.77046 -32.5905,17.14374 -48.3305,12.01441 -13.2598,-4.32101 -16.6642,-3.20416 -29.104,4.74685 -7.8056,4.98896 -17.9474,4.87474 -27.09832,2.63996 -24.42604,-5.96518 -43.39143,-18.4406 -54.84845,-34.15544 -13.40185,-18.38236 -11.60126,-29.36591 -3.81846,-51.89174 16.5134,-47.79497 81.62783,-57.16465 127.73213,-49.04334 54.4361,9.58896 81.2367,43.7658 61.9032,84.59607 z"
     sodipodi:nodetypes="sssssssss" /><path
     id="path8-8-4"
     style="fill:#f5df0e;fill-opacity:1;stroke:#000000;stroke-width:0;stroke-dasharray:none"
     inkscape:label="yellow_well_path"
     d="m 1110.1927,288.97922 c -5.6926,13.27406 -10.6759,23.02549 -24.656,30.09927 -19.7377,9.98714 -29.7336,16.88638 -43.6743,12.24538 -11.7441,-3.90966 -14.829,-2.78891 -26.2224,4.99956 -7.149,4.88693 -16.23124,4.94164 -24.35951,2.95662 -21.69633,-5.29859 -38.29679,-16.89801 -48.06934,-31.71004 -11.4314,-17.32631 -9.47466,-27.83712 -1.79745,-49.45943 16.28938,-45.8779 74.9175,-55.87017 115.9675,-48.86379 48.4685,8.27255 69.8149,40.0836 52.8115,79.73243 z"
     sodipodi:nodetypes="sssssssss" /><path
     id="path7-8-2"
     style="fill:#e4ebee;stroke:#000000;stroke-width:0"
     d="m 1040.3628,224.06327 c 0.9581,5.66305 -10.3682,12.94877 -28.0059,16.05746 -17.63761,3.10861 -33.1586,0.16113 -34.59093,-5.41833 -1.43219,-5.57949 9.69919,-16.99377 27.29833,-20.25244 17.5991,-3.25867 33.2523,3.57302 35.1578,9.06488"
     inkscape:label="shine_yellow_well"
     sodipodi:nodetypes="csssc" /></g><g
   inkscape:groupmode="layer"
   id="layer11"
   inkscape:label="gallery"
   transform="matrix(0.92879785,0,0,0.92879785,-204.84518,24.899133)"><path
     id="path5-9-6-2"
     style="display:inline;fill:#2cc210;fill-opacity:1;stroke:#000000;stroke-width:7.50053;stroke-dasharray:none"
     inkscape:label="green_well_path"
     d="m 1210.0752,564.59726 c -8.4835,11.38622 -20.5851,20.2164 -34.9089,26.30284 -16.5502,7.03264 -39.4702,10.03608 -56.2761,0.71347 -14.1577,-7.8536 -40.9138,-9.88038 -56.2165,-4.56255 -9.6019,3.33683 -15.9476,1.74642 -29.5103,-5.72176 -24.8436,-13.67986 -29.9219,-16.71162 -40.13821,-36.15838 -11.95053,-22.7478 -7.67715,-47.34341 10.15611,-65.15903 38.3482,-38.31025 103.8433,-63.01201 154.2313,-42.99946 59.4941,23.62908 81.2379,89.23188 52.6626,127.58487 z"
     sodipodi:nodetypes="sssssssss" /><path
     id="path6-4-1-2"
     style="fill:#6bce17;fill-opacity:1;stroke:#000000;stroke-width:0;stroke-dasharray:none"
     inkscape:label="mid_light_green_well_path"
     d="m 1192.3734,555.74856 c -8.0131,10.75497 -19.1065,19.25346 -32.0378,25.28244 -14.9416,6.96611 -35.3271,10.39446 -49.7498,2.26772 -12.15,-6.84611 -15.6626,-13.1844 -29.4239,-7.83711 -8.6349,3.3552 -18.6008,8.01056 -27.1329,4.01853 -22.7745,-10.6557 -38.9137,-26.61963 -47.0539,-44.28192 -9.52197,-20.66041 -5.595,-31.07479 6.4688,-51.62836 25.5968,-43.6103 99.5858,-56.44531 143.1901,-39.40925 51.4844,20.11475 62.7305,75.36114 35.7394,111.58794 z"
     sodipodi:nodetypes="ssssssssss" /><path
     id="path8-8-4-1"
     style="fill:#6dde10;fill-opacity:1;stroke:#000000;stroke-width:0;stroke-dasharray:none"
     inkscape:label="green_well_path"
     d="m 1180.569,547.37693 c -8.1937,11.89414 -14.9987,20.47411 -30.0975,24.65818 -21.3172,5.90732 -32.4754,10.70438 -45.2301,3.41055 -10.745,-6.1445 -13.9901,-5.6528 -26.6935,-0.25894 -7.971,3.38441 -16.8864,1.65059 -24.465,-1.89528 -20.2292,-9.46494 -34.2222,-24.10455 -40.8885,-40.5502 -7.7979,-19.2372 -3.8108,-29.15735 7.9716,-48.84587 24.9998,-41.77479 94.0318,-53.36657 132.9,-38.41834 45.8926,17.64962 50.9769,66.37288 26.503,101.8999 z"
     sodipodi:nodetypes="sssssssss" /><path
     id="path7-8-2-6"
     style="fill:#e4ebee;stroke:#000000;stroke-width:0"
     d="m 1058.3311,465.66798 c 2.979,2.71005 -2.7016,12.07704 -11.0882,21.42393 -8.3868,9.34692 -15.6424,13.99013 -18.8469,11.53138 -3.2045,-2.45886 -1.6062,-13.72998 6.6943,-23.14298 8.3006,-9.41301 19.4982,-12.25978 22.9258,-10.05409"
     inkscape:label="shine_green_well"
     sodipodi:nodetypes="csssc" /></g></svg>
